<svg xmlns="http://www.w3.org/2000/svg" viewBox="0 0 360 370" fill="none" stroke="#173A77" stroke-linecap="round" stroke-linejoin="round"><path d="M25.6 327.6 q2.6 -2.2 5.2 -1" stroke-width="0.6" opacity="0.646646449482696" fill="none" /><path d="M208.0 328.8 q4.2 -2.5 8.3 -1" stroke-width="0.6" opacity="0.5524308987057507" fill="none" /><path d="M75.9 318.7 q11.7 -0.7 23.3 -1" stroke-width="0.6" opacity="0.5119266166791586" fill="none" /><path d="M310.1 334.0 q4.9 -2.9 9.9 -1" stroke-width="0.6" opacity="0.24496699808449224" fill="none" /><path d="M31.7 347.8 q5.0 -1.2 10.0 -1" stroke-width="0.6" opacity="0.3445153649100711" fill="none" /><path d="M34.2 337.7 q2.7 -1.4 5.5 -1" stroke-width="0.6" opacity="0.5890903845285057" fill="none" /><path d="M44.8 335.9 q2.2 -0.9 4.4 -1" stroke-width="0.6" opacity="0.3012076487999376" fill="none" /><path d="M92.8 314.5 q2.3 -2.1 4.5 -1" stroke-width="0.6" opacity="0.47792890664707766" fill="none" /><path d="M72.6 345.0 q10.4 -1.6 20.8 -1" stroke-width="0.6" opacity="0.39808393008590537" fill="none" /><path d="M58.9 315.3 q11.4 -0.1 22.8 -1" stroke-width="0.6" opacity="0.3568437238143136" fill="none" /><path d="M226.3 331.6 q4.2 -2.9 8.4 -1" stroke-width="0.6" opacity="0.43048737391056136" fill="none" /><path d="M28.9 321.0 q8.7 -1.7 17.3 -1" stroke-width="0.6" opacity="0.32118271960062883" fill="none" /><path d="M53.0 348.4 q7.4 -0.7 14.9 -1" stroke-width="0.6" opacity="0.26528137664224544" fill="none" /><path d="M82.7 325.1 q4.6 -2.7 9.3 -1" stroke-width="0.6" opacity="0.6219572780612606" fill="none" /><path d="M75.1 317.7 q10.4 -2.1 20.7 -1" stroke-width="0.6" opacity="0.5933852359706495" fill="none" /><path d="M165.2 339.9 q4.2 -1.0 8.4 -1" stroke-width="0.6" opacity="0.3458274163064339" fill="none" /><path d="M165.2 329.3 q8.0 -1.1 15.9 -1" stroke-width="0.6" opacity="0.2589571955865747" fill="none" /><path d="M164.7 338.7 q8.7 -0.8 17.4 -1" stroke-width="0.6" opacity="0.38044805501093226" fill="none" /><path d="M72.8 327.0 q3.0 -0.8 5.9 -1" stroke-width="0.6" opacity="0.5381935481032849" fill="none" /><path d="M94.2 330.7 q4.5 -0.9 9.0 -1" stroke-width="0.6" opacity="0.4256250281918741" fill="none" /><path d="M18.1 334.9 q9.4 -1.1 18.8 -1" stroke-width="0.6" opacity="0.6489577375153104" fill="none" /><path d="M49.1 325.6 q7.7 -2.6 15.3 -1" stroke-width="0.6" opacity="0.368639921686702" fill="none" /><path d="M191.0 321.0 q7.6 -2.4 15.2 -1" stroke-width="0.6" opacity="0.5526359609969588" fill="none" /><path d="M183.9 334.7 q7.6 -0.4 15.2 -1" stroke-width="0.6" opacity="0.34489188834430484" fill="none" /><path d="M269.5 334.7 q9.4 -0.8 18.9 -1" stroke-width="0.6" opacity="0.5390902043488206" fill="none" /><path d="M165.5 336.3 q4.3 -2.7 8.6 -1" stroke-width="0.6" opacity="0.6214566534332816" fill="none" /><path d="M175.6 338.7 q6.5 -2.8 13.0 -1" stroke-width="0.6" opacity="0.549621457967824" fill="none" /><path d="M137.8 327.4 q7.8 -1.8 15.6 -1" stroke-width="0.6" opacity="0.2602899177184893" fill="none" /><path d="M135.1 329.2 q7.9 -2.5 15.8 -1" stroke-width="0.6" opacity="0.6387361564396088" fill="none" /><path d="M68.6 329.2 q11.9 -1.4 23.8 -1" stroke-width="0.6" opacity="0.6424457045004759" fill="none" /><path d="M276.4 333.5 q4.5 -1.0 9.0 -1" stroke-width="0.6" opacity="0.49887741840375777" fill="none" /><path d="M242.6 322.0 q2.5 -1.4 5.0 -1" stroke-width="0.6" opacity="0.5276388851083611" fill="none" /><path d="M70.2 345.1 q10.7 -1.0 21.4 -1" stroke-width="0.6" opacity="0.33679360043175205" fill="none" /><path d="M41.7 332.2 q3.9 -2.6 7.8 -1" stroke-width="0.6" opacity="0.459858625957448" fill="none" /><path d="M224.2 340.7 q3.0 -1.8 5.9 -1" stroke-width="0.6" opacity="0.6191785702062399" fill="none" /><path d="M166.9 334.2 q8.8 -2.7 17.7 -1" stroke-width="0.6" opacity="0.6260791529730494" fill="none" /><path d="M108.5 348.9 q6.2 -0.0 12.4 -1" stroke-width="0.6" opacity="0.4420449920605054" fill="none" /><path d="M224.9 329.9 q7.7 -2.9 15.5 -1" stroke-width="0.6" opacity="0.37562155522524643" fill="none" /><path d="M237.6 327.4 q11.7 -0.7 23.5 -1" stroke-width="0.6" opacity="0.5890022067885248" fill="none" /><path d="M141.3 327.3 q5.6 -0.3 11.1 -1" stroke-width="0.6" opacity="0.4484738314814136" fill="none" /><path d="M266.9 326.0 q1.8 -2.5 3.6 -1" stroke-width="0.6" opacity="0.5936838262564602" fill="none" /><path d="M283.3 314.4 q9.9 -1.8 19.8 -1" stroke-width="0.6" opacity="0.4183040782010401" fill="none" /><path d="M167.2 337.8 q5.5 -1.1 11.0 -1" stroke-width="0.6" opacity="0.506170843668881" fill="none" /><path d="M142.6 331.4 q10.4 -0.8 20.8 -1" stroke-width="0.6" opacity="0.5182194312156636" fill="none" /><path d="M277.3 315.9 q3.3 -0.0 6.5 -1" stroke-width="0.6" opacity="0.2565399428791678" fill="none" /><path d="M27.4 316.8 q10.2 -1.0 20.4 -1" stroke-width="0.6" opacity="0.3969580059448248" fill="none" /><path d="M39.1 328.7 q11.6 -1.6 23.3 -1" stroke-width="0.6" opacity="0.2501737729212585" fill="none" /><path d="M52.1 321.6 q4.2 -1.2 8.4 -1" stroke-width="0.6" opacity="0.6390612917177534" fill="none" /><path d="M116.2 321.1 q11.1 -2.8 22.1 -1" stroke-width="0.6" opacity="0.6471567240061014" fill="none" /><path d="M312.9 345.6 q5.2 -2.0 10.4 -1" stroke-width="0.6" opacity="0.38151429667387704" fill="none" /><path d="M298.9 319.5 q4.4 -0.3 8.8 -1" stroke-width="0.6" opacity="0.3287365684395015" fill="none" /><path d="M165.8 329.8 q8.0 -1.4 16.0 -1" stroke-width="0.6" opacity="0.5810106545081413" fill="none" /><path d="M233.1 342.1 q8.8 -1.5 17.6 -1" stroke-width="0.6" opacity="0.3947616926873683" fill="none" /><path d="M271.9 348.1 q7.1 -2.8 14.3 -1" stroke-width="0.6" opacity="0.2596472630083632" fill="none" /><path d="M107.3 317.6 q4.2 -1.7 8.5 -1" stroke-width="0.6" opacity="0.4305343523263833" fill="none" /><path d="M114.7 321.1 q6.4 -1.4 12.8 -1" stroke-width="0.6" opacity="0.5867359384059267" fill="none" /><path d="M77.3 322.6 q9.8 -0.1 19.6 -1" stroke-width="0.6" opacity="0.5966156557532662" fill="none" /><path d="M197.8 324.6 q2.0 -1.5 4.0 -1" stroke-width="0.6" opacity="0.37421383246653833" fill="none" /><path d="M295.7 329.8 q3.9 -1.2 7.7 -1" stroke-width="0.6" opacity="0.4693568737741733" fill="none" /><path d="M222.9 322.0 q3.8 -1.7 7.6 -1" stroke-width="0.6" opacity="0.2757261823409582" fill="none" /><path d="M251.4 330.3 q5.5 -1.7 11.1 -1" stroke-width="0.6" opacity="0.4067637986171847" fill="none" /><path d="M180.9 343.0 q5.7 -2.3 11.5 -1" stroke-width="0.6" opacity="0.20149932307428461" fill="none" /><path d="M150.6 335.4 q4.6 -2.4 9.2 -1" stroke-width="0.6" opacity="0.34397434409509114" fill="none" /><path d="M50.9 314.4 q3.5 -0.8 6.9 -1" stroke-width="0.6" opacity="0.33091713626296054" fill="none" /><path d="M198.5 327.0 q11.2 -2.3 22.4 -1" stroke-width="0.6" opacity="0.4436768551328811" fill="none" /><path d="M244.3 328.7 q2.3 -2.4 4.6 -1" stroke-width="0.6" opacity="0.3262724609458043" fill="none" /><path d="M188.5 342.9 q7.6 -1.5 15.1 -1" stroke-width="0.6" opacity="0.6377940390244856" fill="none" /><path d="M232.5 330.4 q8.7 -0.1 17.4 -1" stroke-width="0.6" opacity="0.2962392527727957" fill="none" /><path d="M89.3 319.5 q2.6 -1.8 5.2 -1" stroke-width="0.6" opacity="0.5823407317424566" fill="none" /><path d="M201.9 325.2 q7.0 -3.0 14.0 -1" stroke-width="0.6" opacity="0.22483610440307503" fill="none" /><path d="M66.2 345.8 q1.6 -2.7 3.2 -1" stroke-width="0.6" opacity="0.38414534547184315" fill="none" /><path d="M141.4 319.4 q1.6 -2.5 3.2 -1" stroke-width="0.6" opacity="0.2588224297496381" fill="none" /><path d="M181.2 340.4 q11.4 -0.7 22.7 -1" stroke-width="0.6" opacity="0.23740872375185632" fill="none" /><path d="M135.8 326.0 q5.4 -2.4 10.8 -1" stroke-width="0.6" opacity="0.20336092065862524" fill="none" /><path d="M269.0 336.8 q5.1 -2.9 10.2 -1" stroke-width="0.6" opacity="0.2007782335032531" fill="none" /><path d="M100 278 h90 v5 h-90" stroke-width="0.85" opacity="0.85" fill="#F3EEE3" /><path d="M95 285 h100 v5 h-100" stroke-width="0.85" opacity="0.85" fill="#F3EEE3" /><path d="M90 292 h110 v5 h-110" stroke-width="0.85" opacity="0.85" fill="#F3EEE3" /><path d="M85 299 h120 v5 h-120" stroke-width="0.85" opacity="0.85" fill="#F3EEE3" /><path d="M112 278 L114 224 180 220 180 278 Z M112 224 l33 -10 42 5 -8 6 M123 234 h44 M123 263 h42" stroke-width="1" opacity="1" fill="#F3EEE3" /><path d="M134 218 Q166 192 142 170 C123 154 136 139 153 130 L155 145 Q143 150 155 158 C190 184 166 215 158 219 Z" stroke-width="1.3" opacity="1" fill="#F3EEE3" /><path d="M148 139 Q185 119 250 57 L280 163 Q218 135 153 151 Z" stroke-width="1.6" opacity="1" fill="#F3EEE3" /><ellipse cx="265" cy="110" rx="24" ry="59" stroke-width="1.8" fill="#F3EEE3" opacity="1"/><ellipse cx="265" cy="110" rx="16" ry="47" stroke-width="1" fill="none" opacity="1"/><path d="M251 75 Q243 116 267 152 M252 67 Q272 108 277 147" stroke-width="0.7" opacity="0.6" fill="none" /><path d="M154 139 Q210 125.0 247 62" stroke-width="0.65" opacity="0.55" fill="none" /><path d="M154 140 Q210 126.7 249 71" stroke-width="0.65" opacity="0.55" fill="none" /><path d="M154 141 Q210 128.4 251 80" stroke-width="0.65" opacity="0.55" fill="none" /><path d="M154 142 Q210 130.1 253 89" stroke-width="0.65" opacity="0.55" fill="none" /><path d="M154 143 Q210 131.8 255 98" stroke-width="0.65" opacity="0.55" fill="none" /><path d="M154 144 Q210 133.5 257 107" stroke-width="0.65" opacity="0.55" fill="none" /><path d="M154 145 Q210 135.2 259 116" stroke-width="0.65" opacity="0.55" fill="none" /><path d="M154 146 Q210 136.9 261 125" stroke-width="0.65" opacity="0.55" fill="none" /><path d="M154 147 Q210 138.6 263 134" stroke-width="0.65" opacity="0.55" fill="none" /><path d="M154 148 Q210 140.3 265 143" stroke-width="0.65" opacity="0.55" fill="none" /><path d="M154 149 Q210 142.0 267 152" stroke-width="0.65" opacity="0.55" fill="none" /><path d="M293 78 Q317 107 301 140 M305 66 Q336 109 316 153 M317 51 Q350 108 330 165" stroke-width="0.7" opacity="0.6" fill="none" /><path d="M27 226 C36 197 47 174 37 156 Q26 140 35 132 Q47 115 53 136 Q77 146 57 164 L55 229 M38 162 l-19 30 16 -10 M49 168 l13 29 -15 -11 M37 229 l-7 78 18 -66 12 64 -5 -76 M22 309 h47" stroke-width="1.15" opacity="1" fill="#F3EEE3" /><path d="M28.0 307.0 Q31.3 311.4 35.0 315.0" stroke-width="0.65" opacity="0.45" fill="none" /><path d="M32.0 307.0 Q34.8 311.5 39.0 315.0" stroke-width="0.65" opacity="0.45" fill="none" /><path d="M36.0 307.0 Q38.9 310.6 43.0 315.0" stroke-width="0.65" opacity="0.45" fill="none" /><path d="M40.0 307.0 Q44.0 310.7 47.0 315.0" stroke-width="0.65" opacity="0.45" fill="none" /><path d="M44.0 307.0 Q47.7 311.0 51.0 315.0" stroke-width="0.65" opacity="0.45" fill="none" /><path d="M48.0 307.0 Q51.9 311.2 55.0 315.0" stroke-width="0.65" opacity="0.45" fill="none" /><path d="M52.0 307.0 Q55.8 311.1 59.0 315.0" stroke-width="0.65" opacity="0.45" fill="none" /><path d="M56.0 307.0 Q59.6 311.4 63.0 315.0" stroke-width="0.65" opacity="0.45" fill="none" /><path d="M60.0 307.0 Q63.3 310.2 67.0 315.0" stroke-width="0.65" opacity="0.45" fill="none" /><path d="M64.0 307.0 Q66.9 310.5 71.0 315.0" stroke-width="0.65" opacity="0.45" fill="none" /><path d="M68.0 307.0 Q70.9 310.3 75.0 315.0" stroke-width="0.65" opacity="0.45" fill="none" /><path d="M72.0 307.0 Q76.2 311.8 79.0 315.0" stroke-width="0.65" opacity="0.45" fill="none" /><path d="M76.0 307.0 Q79.0 311.6 83.0 315.0" stroke-width="0.65" opacity="0.45" fill="none" /></svg>