<svg xmlns="http://www.w3.org/2000/svg" viewBox="0 0 360 370" fill="none" stroke="#173A77" stroke-linecap="round" stroke-linejoin="round"><path d="M315.2 345.7 q9.9 -0.3 19.7 -1" stroke-width="0.6" opacity="0.6001565579945836" fill="none" /><path d="M157.0 333.6 q4.4 -0.4 8.8 -1" stroke-width="0.6" opacity="0.472936427393403" fill="none" /><path d="M328.7 321.6 q11.3 -0.4 22.6 -1" stroke-width="0.6" opacity="0.5491647546231138" fill="none" /><path d="M106.0 335.3 q7.0 -0.5 14.0 -1" stroke-width="0.6" opacity="0.5507539130922857" fill="none" /><path d="M167.1 335.2 q5.0 -1.5 9.9 -1" stroke-width="0.6" opacity="0.6180100436461475" fill="none" /><path d="M317.2 316.6 q3.1 -0.7 6.3 -1" stroke-width="0.6" opacity="0.290701687737013" fill="none" /><path d="M80.7 323.8 q9.2 -2.5 18.3 -1" stroke-width="0.6" opacity="0.42188660282308454" fill="none" /><path d="M326.6 346.3 q9.8 -0.8 19.6 -1" stroke-width="0.6" opacity="0.47135116934972415" fill="none" /><path d="M107.1 349.6 q5.9 -0.6 11.9 -1" stroke-width="0.6" opacity="0.6353413194073634" fill="none" /><path d="M142.6 345.9 q3.8 -3.0 7.7 -1" stroke-width="0.6" opacity="0.40244347103050215" fill="none" /><path d="M152.5 331.9 q6.0 -2.7 11.9 -1" stroke-width="0.6" opacity="0.28320189142335983" fill="none" /><path d="M215.0 337.3 q10.6 -2.9 21.2 -1" stroke-width="0.6" opacity="0.372805024676435" fill="none" /><path d="M279.4 329.7 q9.7 -2.3 19.4 -1" stroke-width="0.6" opacity="0.3611073751590308" fill="none" /><path d="M311.4 324.1 q3.1 -1.6 6.2 -1" stroke-width="0.6" opacity="0.4580888022895414" fill="none" /><path d="M306.6 329.3 q10.6 -1.5 21.1 -1" stroke-width="0.6" opacity="0.2350941208858776" fill="none" /><path d="M318.5 339.8 q3.8 -1.9 7.6 -1" stroke-width="0.6" opacity="0.28403037428504097" fill="none" /><path d="M10.9 344.4 q10.2 -1.2 20.4 -1" stroke-width="0.6" opacity="0.26873473520450025" fill="none" /><path d="M29.9 334.6 q8.6 -2.5 17.3 -1" stroke-width="0.6" opacity="0.3307908984355725" fill="none" /><path d="M0.6 342.0 q5.9 -0.4 11.8 -1" stroke-width="0.6" opacity="0.3979549095918036" fill="none" /><path d="M308.6 349.7 q4.2 -2.0 8.4 -1" stroke-width="0.6" opacity="0.4805034557047183" fill="none" /><path d="M49.9 340.5 q11.4 -0.9 22.9 -1" stroke-width="0.6" opacity="0.32712170835605153" fill="none" /><path d="M257.4 326.7 q6.0 -1.4 12.0 -1" stroke-width="0.6" opacity="0.6213197845049849" fill="none" /><path d="M60.1 324.7 q8.4 -2.3 16.7 -1" stroke-width="0.6" opacity="0.22329296461459816" fill="none" /><path d="M118.2 332.3 q5.1 -1.5 10.2 -1" stroke-width="0.6" opacity="0.5531477887333515" fill="none" /><path d="M325.5 318.3 q5.9 -1.6 11.7 -1" stroke-width="0.6" opacity="0.37493596509962074" fill="none" /><path d="M84.6 333.6 q4.8 -0.5 9.7 -1" stroke-width="0.6" opacity="0.6024013081226043" fill="none" /><path d="M46.2 341.1 q2.3 -2.5 4.5 -1" stroke-width="0.6" opacity="0.5535835856674081" fill="none" /><path d="M117.0 324.8 q5.2 -2.8 10.4 -1" stroke-width="0.6" opacity="0.35096056390683383" fill="none" /><path d="M124.1 346.3 q9.7 -2.6 19.4 -1" stroke-width="0.6" opacity="0.3833786310860431" fill="none" /><path d="M201.6 344.6 q4.3 -1.1 8.7 -1" stroke-width="0.6" opacity="0.4935410118480278" fill="none" /><path d="M294.5 315.4 q3.8 -1.6 7.5 -1" stroke-width="0.6" opacity="0.4172409048757566" fill="none" /><path d="M8.2 330.1 q10.9 -0.9 21.8 -1" stroke-width="0.6" opacity="0.41431745823917643" fill="none" /><path d="M285.5 330.3 q7.0 -2.1 14.0 -1" stroke-width="0.6" opacity="0.334329543702474" fill="none" /><path d="M283.8 348.7 q5.4 -1.3 10.8 -1" stroke-width="0.6" opacity="0.39493472734955204" fill="none" /><path d="M162.8 344.6 q3.6 -2.3 7.2 -1" stroke-width="0.6" opacity="0.37555515486254365" fill="none" /><path d="M133.1 339.2 q10.6 -1.1 21.2 -1" stroke-width="0.6" opacity="0.261736592447593" fill="none" /><path d="M0.8 324.0 q10.6 -0.2 21.1 -1" stroke-width="0.6" opacity="0.43483515044112653" fill="none" /><path d="M82.5 334.6 q8.0 -1.6 15.9 -1" stroke-width="0.6" opacity="0.40844455005917657" fill="none" /><path d="M61.4 319.8 q6.3 -0.6 12.7 -1" stroke-width="0.6" opacity="0.326610328893528" fill="none" /><path d="M162.0 317.9 q5.0 -0.8 10.0 -1" stroke-width="0.6" opacity="0.2909445589245293" fill="none" /><path d="M46.9 334.7 q1.9 -2.4 3.8 -1" stroke-width="0.6" opacity="0.43041425172632014" fill="none" /><path d="M99.6 341.1 q7.1 -0.5 14.2 -1" stroke-width="0.6" opacity="0.48955762182271123" fill="none" /><path d="M233.1 342.9 q11.3 -1.3 22.6 -1" stroke-width="0.6" opacity="0.4282734682326501" fill="none" /><path d="M55.0 316.0 q2.6 -2.2 5.2 -1" stroke-width="0.6" opacity="0.21956903686233514" fill="none" /><path d="M151.4 323.8 q9.0 -1.8 18.1 -1" stroke-width="0.6" opacity="0.24317977581997924" fill="none" /><path d="M158.9 340.2 q10.8 -2.9 21.6 -1" stroke-width="0.6" opacity="0.2764163993108646" fill="none" /><path d="M285.8 340.7 q1.5 -2.7 3.1 -1" stroke-width="0.6" opacity="0.2221928965531883" fill="none" /><path d="M58.0 345.7 q3.4 -0.5 6.7 -1" stroke-width="0.6" opacity="0.5386202639346434" fill="none" /><path d="M254.3 316.8 q11.9 -2.9 23.8 -1" stroke-width="0.6" opacity="0.5881293470828888" fill="none" /><path d="M230.3 335.6 q3.2 -1.3 6.4 -1" stroke-width="0.6" opacity="0.21623140332624258" fill="none" /><path d="M114.4 348.3 q5.6 -0.3 11.3 -1" stroke-width="0.6" opacity="0.2709115626967591" fill="none" /><path d="M284.2 315.1 q9.6 -1.0 19.2 -1" stroke-width="0.6" opacity="0.6187613958942106" fill="none" /><path d="M91.0 322.7 q6.8 -1.5 13.6 -1" stroke-width="0.6" opacity="0.29834983615804084" fill="none" /><path d="M129.3 338.1 q2.8 -2.9 5.5 -1" stroke-width="0.6" opacity="0.49355547799636185" fill="none" /><path d="M193.6 333.3 q11.9 -2.6 23.9 -1" stroke-width="0.6" opacity="0.4331377581125153" fill="none" /><path d="M36.8 337.6 q4.1 -0.7 8.2 -1" stroke-width="0.6" opacity="0.3578143631308255" fill="none" /><path d="M18.6 324.3 q10.9 -1.7 21.8 -1" stroke-width="0.6" opacity="0.23933600254984386" fill="none" /><path d="M94.1 328.3 q5.4 -2.9 10.9 -1" stroke-width="0.6" opacity="0.4690954015599481" fill="none" /><path d="M34.0 345.6 q7.3 -2.0 14.6 -1" stroke-width="0.6" opacity="0.3947592053945812" fill="none" /><path d="M179.3 337.4 q9.9 -2.6 19.9 -1" stroke-width="0.6" opacity="0.5676330505942746" fill="none" /><path d="M282.2 348.1 q7.0 -2.2 14.0 -1" stroke-width="0.6" opacity="0.3882232946243698" fill="none" /><path d="M117.9 347.2 q10.9 -0.7 21.8 -1" stroke-width="0.6" opacity="0.6462350913525267" fill="none" /><path d="M89.9 348.2 q9.2 -1.8 18.3 -1" stroke-width="0.6" opacity="0.22607441381976143" fill="none" /><path d="M312.3 323.3 q9.7 -1.9 19.4 -1" stroke-width="0.6" opacity="0.5736862381366745" fill="none" /><path d="M20.1 344.4 q6.0 -2.6 12.0 -1" stroke-width="0.6" opacity="0.3642340747536922" fill="none" /><path d="M135.9 319.0 q5.7 -2.8 11.3 -1" stroke-width="0.6" opacity="0.6393814865890355" fill="none" /><path d="M194.9 347.8 q6.0 -1.5 11.9 -1" stroke-width="0.6" opacity="0.5901018600744569" fill="none" /><path d="M107.1 349.5 q9.8 -0.5 19.6 -1" stroke-width="0.6" opacity="0.5955086985509197" fill="none" /><path d="M80.8 320.8 q11.0 -0.8 21.9 -1" stroke-width="0.6" opacity="0.5276610874498207" fill="none" /><path d="M252.2 319.3 q4.2 -2.4 8.4 -1" stroke-width="0.6" opacity="0.6136844956149559" fill="none" /><path d="M171.6 343.7 q9.5 -2.7 19.0 -1" stroke-width="0.6" opacity="0.5215459997873437" fill="none" /><path d="M99.5 330.3 q9.3 -1.0 18.6 -1" stroke-width="0.6" opacity="0.6300019708941191" fill="none" /><path d="M140.1 341.4 q5.7 -2.0 11.4 -1" stroke-width="0.6" opacity="0.47936300035464463" fill="none" /><path d="M119.1 348.3 q3.6 -1.6 7.3 -1" stroke-width="0.6" opacity="0.4187532054573847" fill="none" /><path d="M67.4 315.8 q4.5 -2.3 9.0 -1" stroke-width="0.6" opacity="0.34960518971513865" fill="none" /><path d="M57 306 L75 222 258 223 280 307 Z M75 221 L150 188 277 215 260 229 Z" stroke-width="1.1" opacity="1" fill="#F3EEE3" /><path d="M80.0 232.0 Q83.9 267.9 89.0 303.0" stroke-width="0.65" opacity="0.4" fill="none" /><path d="M86.0 232.0 Q90.4 267.2 95.0 303.0" stroke-width="0.65" opacity="0.4" fill="none" /><path d="M92.0 232.0 Q97.1 268.1 101.0 303.0" stroke-width="0.65" opacity="0.4" fill="none" /><path d="M98.0 232.0 Q102.2 267.7 107.0 303.0" stroke-width="0.65" opacity="0.4" fill="none" /><path d="M104.0 232.0 Q108.1 267.6 113.0 303.0" stroke-width="0.65" opacity="0.4" fill="none" /><path d="M110.0 232.0 Q114.6 267.6 119.0 303.0" stroke-width="0.65" opacity="0.4" fill="none" /><path d="M116.0 232.0 Q120.2 267.9 125.0 303.0" stroke-width="0.65" opacity="0.4" fill="none" /><path d="M122.0 232.0 Q127.2 267.1 131.0 303.0" stroke-width="0.65" opacity="0.4" fill="none" /><path d="M128.0 232.0 Q132.9 267.8 137.0 303.0" stroke-width="0.65" opacity="0.4" fill="none" /><path d="M134.0 232.0 Q137.9 268.2 143.0 303.0" stroke-width="0.65" opacity="0.4" fill="none" /><path d="M140.0 232.0 Q144.1 266.8 149.0 303.0" stroke-width="0.65" opacity="0.4" fill="none" /><path d="M146.0 232.0 Q150.6 267.9 155.0 303.0" stroke-width="0.65" opacity="0.4" fill="none" /><path d="M152.0 232.0 Q157.2 268.1 161.0 303.0" stroke-width="0.65" opacity="0.4" fill="none" /><path d="M158.0 232.0 Q161.7 268.1 167.0 303.0" stroke-width="0.65" opacity="0.4" fill="none" /><path d="M164.0 232.0 Q168.7 267.1 173.0 303.0" stroke-width="0.65" opacity="0.4" fill="none" /><path d="M170.0 232.0 Q174.7 267.5 179.0 303.0" stroke-width="0.65" opacity="0.4" fill="none" /><path d="M176.0 232.0 Q180.1 267.2 185.0 303.0" stroke-width="0.65" opacity="0.4" fill="none" /><path d="M182.0 232.0 Q186.2 268.0 191.0 303.0" stroke-width="0.65" opacity="0.4" fill="none" /><path d="M188.0 232.0 Q192.4 267.5 197.0 303.0" stroke-width="0.65" opacity="0.4" fill="none" /><path d="M194.0 232.0 Q198.5 268.2 203.0 303.0" stroke-width="0.65" opacity="0.4" fill="none" /><path d="M200.0 232.0 Q204.0 268.3 209.0 303.0" stroke-width="0.65" opacity="0.4" fill="none" /><path d="M206.0 232.0 Q210.8 267.5 215.0 303.0" stroke-width="0.65" opacity="0.4" fill="none" /><path d="M212.0 232.0 Q216.8 267.2 221.0 303.0" stroke-width="0.65" opacity="0.4" fill="none" /><path d="M218.0 232.0 Q222.6 268.1 227.0 303.0" stroke-width="0.65" opacity="0.4" fill="none" /><path d="M224.0 232.0 Q228.2 267.3 233.0 303.0" stroke-width="0.65" opacity="0.4" fill="none" /><path d="M230.0 232.0 Q234.8 268.0 239.0 303.0" stroke-width="0.65" opacity="0.4" fill="none" /><path d="M236.0 232.0 Q239.9 267.4 245.0 303.0" stroke-width="0.65" opacity="0.4" fill="none" /><path d="M242.0 232.0 Q246.6 267.7 251.0 303.0" stroke-width="0.65" opacity="0.4" fill="none" /><path d="M248.0 232.0 Q252.7 267.4 257.0 303.0" stroke-width="0.65" opacity="0.4" fill="none" /><path d="M254.0 232.0 Q259.0 267.5 263.0 303.0" stroke-width="0.65" opacity="0.4" fill="none" /><path d="M149 222 L138 299 M162 223 l13 77 M155 217 l1 86" stroke-width="1.4" opacity="1" fill="none" /><path d="M123 180 l91 -33 9 24 -93 30 Z M119 178 l12 25 -12 4 -14 -26 Z M212 142 l14 32 13 -4 -13 -32 Z" stroke-width="1.4" opacity="1" fill="#F3EEE3" /><ellipse cx="231" cy="154" rx="8" ry="17" stroke-width="1.3" fill="#F3EEE3" opacity="1"/><path d="M128.0 185.0 Q126.8 189.8 126.0 194.0" stroke-width="0.65" opacity="0.7" fill="none" /><path d="M132.0 185.0 Q130.3 189.3 130.0 194.0" stroke-width="0.65" opacity="0.7" fill="none" /><path d="M136.0 185.0 Q135.5 188.9 134.0 194.0" stroke-width="0.65" opacity="0.7" fill="none" /><path d="M140.0 185.0 Q139.5 189.7 138.0 194.0" stroke-width="0.65" opacity="0.7" fill="none" /><path d="M144.0 185.0 Q142.4 188.9 142.0 194.0" stroke-width="0.65" opacity="0.7" fill="none" /><path d="M148.0 185.0 Q146.7 189.2 146.0 194.0" stroke-width="0.65" opacity="0.7" fill="none" /><path d="M152.0 185.0 Q150.7 189.2 150.0 194.0" stroke-width="0.65" opacity="0.7" fill="none" /><path d="M156.0 185.0 Q155.3 190.0 154.0 194.0" stroke-width="0.65" opacity="0.7" fill="none" /><path d="M160.0 185.0 Q159.1 189.2 158.0 194.0" stroke-width="0.65" opacity="0.7" fill="none" /><path d="M164.0 185.0 Q163.3 189.0 162.0 194.0" stroke-width="0.65" opacity="0.7" fill="none" /><path d="M168.0 185.0 Q166.5 189.8 166.0 194.0" stroke-width="0.65" opacity="0.7" fill="none" /><path d="M172.0 185.0 Q171.5 190.1 170.0 194.0" stroke-width="0.65" opacity="0.7" fill="none" /><path d="M176.0 185.0 Q175.0 188.8 174.0 194.0" stroke-width="0.65" opacity="0.7" fill="none" /><path d="M180.0 185.0 Q179.4 190.1 178.0 194.0" stroke-width="0.65" opacity="0.7" fill="none" /><path d="M150 194 l3 29 13 -1 -6 -30" stroke-width="1.2" opacity="1" fill="#F3EEE3" /><g transform="translate(73 165) scale(0.85) rotate(0)"><ellipse cx="11" cy="7" rx="4.4" ry="6" stroke-width="1" fill="#F3EEE3" opacity="1"/><path d="M8 13 Q0 23 3 40 L11 43 18 38 Q20 20 14 14 M5 20 L-4 35 -1 38 8 28 M16 20 L25 31 28 24 M7 41 L4 63 0 65 M14 42 L19 61 24 63" stroke-width="1.3" opacity="1" fill="#F3EEE3" /><path d="M7.0 18.0 Q6.8 27.9 8.0 38.0" stroke-width="0.65" opacity="0.45" fill="none" /><path d="M10.0 18.0 Q11.0 27.4 11.0 38.0" stroke-width="0.65" opacity="0.45" fill="none" /><path d="M13.0 18.0 Q14.2 28.7 14.0 38.0" stroke-width="0.65" opacity="0.45" fill="none" /></g><path d="M247 195 l14 -68 m-19 72 29 -5 M260 129 l-3 -22 6 -9 6 10 -8 21" stroke-width="0.9" opacity="1" fill="#F3EEE3" /><ellipse cx="161" cy="320" rx="113" ry="13" stroke-width="0.6" fill="none" opacity="0.5"/></svg>