<svg xmlns="http://www.w3.org/2000/svg" viewBox="0 0 360 370" fill="none" stroke="#173A77" stroke-linecap="round" stroke-linejoin="round"><path d="M85.2 349.5 q9.5 -0.3 19.1 -1" stroke-width="0.6" opacity="0.5533629873095107" fill="none" /><path d="M38.1 349.0 q7.4 -0.8 14.9 -1" stroke-width="0.6" opacity="0.2202411384953525" fill="none" /><path d="M309.0 332.2 q3.5 -2.1 7.0 -1" stroke-width="0.6" opacity="0.6207766672281072" fill="none" /><path d="M194.9 335.7 q4.1 -1.5 8.1 -1" stroke-width="0.6" opacity="0.6147623404910738" fill="none" /><path d="M210.3 341.2 q3.9 -2.9 7.8 -1" stroke-width="0.6" opacity="0.5490537938961698" fill="none" /><path d="M265.8 334.1 q2.4 -0.2 4.8 -1" stroke-width="0.6" opacity="0.5519959762883873" fill="none" /><path d="M142.6 360.8 q1.6 -1.2 3.3 -1" stroke-width="0.6" opacity="0.5971618429845882" fill="none" /><path d="M287.3 354.2 q11.1 -2.8 22.2 -1" stroke-width="0.6" opacity="0.2247033605475219" fill="none" /><path d="M294.4 361.7 q6.8 -2.1 13.6 -1" stroke-width="0.6" opacity="0.4502249441055882" fill="none" /><path d="M77.3 337.0 q3.1 -1.9 6.3 -1" stroke-width="0.6" opacity="0.41941765973546913" fill="none" /><path d="M260.3 334.3 q5.8 -0.6 11.7 -1" stroke-width="0.6" opacity="0.32346972630351906" fill="none" /><path d="M152.2 342.0 q12.0 -2.6 23.9 -1" stroke-width="0.6" opacity="0.47683404861847767" fill="none" /><path d="M237.5 361.5 q8.9 -0.5 17.8 -1" stroke-width="0.6" opacity="0.6249917359989579" fill="none" /><path d="M152.5 344.1 q4.4 -2.7 8.8 -1" stroke-width="0.6" opacity="0.3360546503833596" fill="none" /><path d="M159.9 337.6 q9.5 -0.3 19.0 -1" stroke-width="0.6" opacity="0.5860278249829536" fill="none" /><path d="M223.3 359.6 q3.4 -2.2 6.7 -1" stroke-width="0.6" opacity="0.4799526533865148" fill="none" /><path d="M252.0 358.7 q4.7 -0.9 9.3 -1" stroke-width="0.6" opacity="0.611982564504714" fill="none" /><path d="M123.5 355.7 q5.0 -0.5 10.1 -1" stroke-width="0.6" opacity="0.6356594157891775" fill="none" /><path d="M158.2 344.6 q4.2 -1.1 8.4 -1" stroke-width="0.6" opacity="0.6055765534275512" fill="none" /><path d="M141.2 335.3 q9.0 -0.1 18.0 -1" stroke-width="0.6" opacity="0.478075328129175" fill="none" /><path d="M91.8 358.0 q10.9 -0.0 21.8 -1" stroke-width="0.6" opacity="0.21969587364182241" fill="none" /><path d="M124.7 362.6 q5.7 -3.0 11.4 -1" stroke-width="0.6" opacity="0.3872879336842646" fill="none" /><path d="M155.6 350.1 q8.8 -1.4 17.6 -1" stroke-width="0.6" opacity="0.4036781521000278" fill="none" /><path d="M228.4 348.1 q3.3 -2.3 6.7 -1" stroke-width="0.6" opacity="0.6423125633393346" fill="none" /><path d="M196.2 335.9 q4.9 -1.4 9.8 -1" stroke-width="0.6" opacity="0.5668187963442297" fill="none" /><path d="M192.5 337.8 q4.5 -0.8 9.0 -1" stroke-width="0.6" opacity="0.3173487855458165" fill="none" /><path d="M244.9 363.7 q2.5 -0.9 5.0 -1" stroke-width="0.6" opacity="0.5457958933788369" fill="none" /><path d="M216.8 335.9 q3.5 -0.6 7.1 -1" stroke-width="0.6" opacity="0.2335643397644436" fill="none" /><path d="M226.2 364.0 q1.5 -1.5 3.0 -1" stroke-width="0.6" opacity="0.532118021426677" fill="none" /><path d="M109.0 342.7 q11.1 -2.2 22.2 -1" stroke-width="0.6" opacity="0.20676001257523988" fill="none" /><path d="M233.7 361.0 q5.6 -1.3 11.3 -1" stroke-width="0.6" opacity="0.5321913581893265" fill="none" /><path d="M301.6 360.2 q5.1 -0.1 10.2 -1" stroke-width="0.6" opacity="0.24170943258445612" fill="none" /><path d="M291.5 351.0 q2.6 -0.9 5.1 -1" stroke-width="0.6" opacity="0.45052910852416617" fill="none" /><path d="M135.4 332.7 q10.7 -1.1 21.5 -1" stroke-width="0.6" opacity="0.5146907633408025" fill="none" /><path d="M28.7 351.9 q9.0 -0.7 18.0 -1" stroke-width="0.6" opacity="0.43357334088741073" fill="none" /><path d="M74.7 361.7 q11.5 -1.9 23.0 -1" stroke-width="0.6" opacity="0.2724489044800828" fill="none" /><path d="M283.1 362.4 q11.7 -0.1 23.3 -1" stroke-width="0.6" opacity="0.21697040602008513" fill="none" /><path d="M32.3 333.3 q3.0 -1.9 6.0 -1" stroke-width="0.6" opacity="0.6093268491188819" fill="none" /><path d="M81.2 343.4 q5.0 -0.1 10.0 -1" stroke-width="0.6" opacity="0.4627167328045104" fill="none" /><path d="M121.9 356.4 q11.2 -2.6 22.4 -1" stroke-width="0.6" opacity="0.4407381100276061" fill="none" /><path d="M163.2 346.4 q9.3 -0.6 18.6 -1" stroke-width="0.6" opacity="0.2422740642881936" fill="none" /><path d="M139.3 335.2 q10.5 -1.5 21.1 -1" stroke-width="0.6" opacity="0.35482109064423706" fill="none" /><path d="M322.0 342.9 q9.7 -2.3 19.4 -1" stroke-width="0.6" opacity="0.599576875332609" fill="none" /><path d="M318.3 359.4 q9.3 -1.3 18.7 -1" stroke-width="0.6" opacity="0.36588532823260267" fill="none" /><path d="M90.0 335.3 q10.0 -0.6 20.1 -1" stroke-width="0.6" opacity="0.36294822466769877" fill="none" /><path d="M186.8 361.5 q11.1 -1.9 22.2 -1" stroke-width="0.6" opacity="0.3319344210564631" fill="none" /><path d="M40.5 348.3 q7.0 -0.1 14.0 -1" stroke-width="0.6" opacity="0.5295095233857213" fill="none" /><path d="M72.8 337.7 q11.0 -0.7 22.1 -1" stroke-width="0.6" opacity="0.3218376848706911" fill="none" /><path d="M314.6 347.6 q5.8 -0.9 11.5 -1" stroke-width="0.6" opacity="0.3065860005092597" fill="none" /><path d="M41.3 332.0 q10.5 -2.1 20.9 -1" stroke-width="0.6" opacity="0.4069109362159431" fill="none" /><path d="M74.7 357.7 q9.7 -2.8 19.4 -1" stroke-width="0.6" opacity="0.45623967735915266" fill="none" /><path d="M23.0 362.9 q9.4 -1.5 18.8 -1" stroke-width="0.6" opacity="0.4555648533707295" fill="none" /><path d="M106.0 332.0 q6.1 -0.9 12.1 -1" stroke-width="0.6" opacity="0.5134828045685935" fill="none" /><path d="M245.6 364.6 q11.7 -0.8 23.4 -1" stroke-width="0.6" opacity="0.40615809190800056" fill="none" /><path d="M115.6 352.4 q8.5 -2.0 17.0 -1" stroke-width="0.6" opacity="0.35671649818412066" fill="none" /><path d="M59.5 359.6 q8.7 -0.5 17.5 -1" stroke-width="0.6" opacity="0.46217426897189917" fill="none" /><path d="M287.8 331.5 q2.8 -0.0 5.7 -1" stroke-width="0.6" opacity="0.416849188755887" fill="none" /><path d="M84.1 355.3 q7.8 -2.8 15.5 -1" stroke-width="0.6" opacity="0.3370950353102703" fill="none" /><path d="M34.1 354.1 q8.2 -1.8 16.3 -1" stroke-width="0.6" opacity="0.3412260492293303" fill="none" /><path d="M231.2 355.8 q8.2 -0.7 16.5 -1" stroke-width="0.6" opacity="0.6150506815770445" fill="none" /><path d="M42.2 344.9 q11.3 -2.9 22.6 -1" stroke-width="0.6" opacity="0.6021586590424719" fill="none" /><path d="M193.3 363.9 q2.6 -2.1 5.2 -1" stroke-width="0.6" opacity="0.5224127280010533" fill="none" /><path d="M283.3 363.7 q7.2 -2.5 14.4 -1" stroke-width="0.6" opacity="0.6102835705399611" fill="none" /><path d="M202.7 350.1 q1.9 -2.6 3.7 -1" stroke-width="0.6" opacity="0.4893396424158366" fill="none" /><path d="M196.9 339.1 q9.8 -1.5 19.7 -1" stroke-width="0.6" opacity="0.6438113121922631" fill="none" /><path d="M108.3 349.6 q2.1 -2.0 4.2 -1" stroke-width="0.6" opacity="0.45668753401757145" fill="none" /><path d="M73.2 353.3 q11.5 -0.6 22.9 -1" stroke-width="0.6" opacity="0.3089568941418884" fill="none" /><path d="M149.5 344.9 q6.3 -0.9 12.7 -1" stroke-width="0.6" opacity="0.27341248490796755" fill="none" /><path d="M242.6 351.9 q4.6 -2.8 9.1 -1" stroke-width="0.6" opacity="0.4684305667156914" fill="none" /><path d="M32.5 360.9 q7.7 -2.9 15.5 -1" stroke-width="0.6" opacity="0.32786686860103265" fill="none" /><path d="M36.1 362.8 q2.3 -1.3 4.5 -1" stroke-width="0.6" opacity="0.3056952236274031" fill="none" /><path d="M148.3 349.3 q8.3 -2.0 16.7 -1" stroke-width="0.6" opacity="0.3273421659538729" fill="none" /><path d="M178.1 341.3 q6.2 -0.7 12.3 -1" stroke-width="0.6" opacity="0.4441395829400593" fill="none" /><path d="M200.9 336.9 q11.6 -0.2 23.3 -1" stroke-width="0.6" opacity="0.5623856411648818" fill="none" /><path d="M250.6 361.2 q9.8 -1.6 19.5 -1" stroke-width="0.6" opacity="0.621879335592452" fill="none" /><path d="M119.5 349.5 q7.7 -1.2 15.5 -1" stroke-width="0.6" opacity="0.500989325334672" fill="none" /><path d="M318.4 357.8 q8.4 -0.1 16.8 -1" stroke-width="0.6" opacity="0.6479548348758566" fill="none" /><path d="M305.2 351.7 q1.5 -0.9 3.0 -1" stroke-width="0.6" opacity="0.34315113125093905" fill="none" /><path d="M75.4 336.0 q3.5 -0.6 7.0 -1" stroke-width="0.6" opacity="0.3284396524924611" fill="none" /><path d="M314.8 354.2 q1.8 -1.4 3.5 -1" stroke-width="0.6" opacity="0.6114079507769477" fill="none" /><path d="M153.8 364.0 q9.3 -1.1 18.7 -1" stroke-width="0.6" opacity="0.24598028607249597" fill="none" /><path d="M112.6 346.8 q5.7 -1.7 11.5 -1" stroke-width="0.6" opacity="0.5593213123611168" fill="none" /><path d="M101.3 345.6 q8.9 -2.1 17.8 -1" stroke-width="0.6" opacity="0.35156582491031607" fill="none" /><path d="M297.5 337.1 q9.1 -2.2 18.1 -1" stroke-width="0.6" opacity="0.2746817373441437" fill="none" /><path d="M65.8 355.6 q8.3 -0.1 16.6 -1" stroke-width="0.6" opacity="0.5817469996980237" fill="none" /><path d="M23.3 358.6 q4.1 -0.1 8.1 -1" stroke-width="0.6" opacity="0.3139990473403253" fill="none" /><path d="M83.3 353.3 q8.5 -0.8 17.0 -1" stroke-width="0.6" opacity="0.4363589036451934" fill="none" /><path d="M182.6 348.3 q7.9 -0.1 15.7 -1" stroke-width="0.6" opacity="0.3984241546331512" fill="none" /><path d="M310.1 360.2 q7.3 -2.7 14.6 -1" stroke-width="0.6" opacity="0.2149424732356522" fill="none" /><path d="M322.9 339.5 q11.0 -1.1 22.0 -1" stroke-width="0.6" opacity="0.3067196212860178" fill="none" /><path d="M294.2 347.1 q6.0 -1.7 12.0 -1" stroke-width="0.6" opacity="0.6177709491290884" fill="none" /><path d="M125.4 344.3 q3.4 -3.0 6.8 -1" stroke-width="0.6" opacity="0.48580108727324905" fill="none" /><path d="M58.9 354.8 q7.9 -2.3 15.9 -1" stroke-width="0.6" opacity="0.38090724599960135" fill="none" /><path d="M209.7 341.9 q10.4 -2.1 20.8 -1" stroke-width="0.6" opacity="0.3151932902856754" fill="none" /><path d="M123.0 359.7 q9.3 -2.7 18.6 -1" stroke-width="0.6" opacity="0.6090060121317367" fill="none" /><path d="M58.7 337.7 q2.4 -2.4 4.9 -1" stroke-width="0.6" opacity="0.5064399441233606" fill="none" /><path d="M215.4 361.9 q4.7 -0.7 9.4 -1" stroke-width="0.6" opacity="0.30998981464321895" fill="none" /><path d="M288.2 363.9 q6.7 -2.2 13.4 -1" stroke-width="0.6" opacity="0.30814511963680835" fill="none" /><path d="M309.4 345.7 q3.7 -1.4 7.5 -1" stroke-width="0.6" opacity="0.21546735008909593" fill="none" /><path d="M260.1 358.8 q4.7 -1.8 9.4 -1" stroke-width="0.6" opacity="0.47997168076684965" fill="none" /><path d="M73 303 L57 320 249 324 278 306 259 300 Z" stroke-width="1" opacity="1" fill="#F3EEE3" /><path d="M86 287 L80 309 101 312 108 292 M219 290 L218 312 240 313 240 290" stroke-width="1.4" opacity="1" fill="#F3EEE3" /><path d="M75 292 L69 83 C63 -8 251 -6 253 80 L265 294 Z" stroke-width="2" opacity="1" fill="#F3EEE3" /><path d="M85 280 L80 84 C76 10 240 9 241 82 L252 281 Z" stroke-width="0.85" opacity="1" fill="none" /><path d="M93 271 L90 86 C85 25 229 20 231 85 L240 272 Z" stroke-width="1.3" opacity="1" fill="none" /><path d="M77.0 86.0 Q81.4 86.4 87.0 86.0" stroke-width="0.75" opacity="0.8" fill="none" /><path d="M77.6 76.9 Q81.9 77.0 87.5 78.2" stroke-width="0.75" opacity="0.8" fill="none" /><path d="M79.3 68.0 Q85.0 68.9 89.0 70.5" stroke-width="0.75" opacity="0.8" fill="none" /><path d="M82.2 59.3 Q87.3 60.6 91.6 63.1" stroke-width="0.75" opacity="0.8" fill="none" /><path d="M86.1 51.0 Q90.6 53.2 95.1 55.9" stroke-width="0.75" opacity="0.8" fill="none" /><path d="M91.1 43.1 Q95.4 46.4 99.5 49.2" stroke-width="0.75" opacity="0.8" fill="none" /><path d="M97.1 35.9 Q101.5 40.0 104.8 42.9" stroke-width="0.75" opacity="0.8" fill="none" /><path d="M104.0 29.3 Q108.0 33.7 110.8 37.3" stroke-width="0.75" opacity="0.8" fill="none" /><path d="M111.6 23.4 Q114.5 27.8 117.6 32.3" stroke-width="0.75" opacity="0.8" fill="none" /><path d="M120.0 18.5 Q121.9 23.2 125.0 28.0" stroke-width="0.75" opacity="0.8" fill="none" /><path d="M128.9 14.4 Q131.7 18.9 132.9 24.5" stroke-width="0.75" opacity="0.8" fill="none" /><path d="M138.3 11.3 Q140.5 15.8 141.2 21.8" stroke-width="0.75" opacity="0.8" fill="none" /><path d="M148.1 9.2 Q149.0 14.0 149.8 20.0" stroke-width="0.75" opacity="0.8" fill="none" /><path d="M158.0 8.1 Q158.4 14.2 158.6 19.1" stroke-width="0.75" opacity="0.8" fill="none" /><path d="M168.0 8.1 Q167.8 13.6 167.4 19.1" stroke-width="0.75" opacity="0.8" fill="none" /><path d="M177.9 9.2 Q176.3 14.2 176.2 20.0" stroke-width="0.75" opacity="0.8" fill="none" /><path d="M187.7 11.3 Q187.0 15.9 184.8 21.8" stroke-width="0.75" opacity="0.8" fill="none" /><path d="M197.1 14.4 Q195.1 19.0 193.1 24.5" stroke-width="0.75" opacity="0.8" fill="none" /><path d="M206.0 18.5 Q203.7 22.9 201.0 28.0" stroke-width="0.75" opacity="0.8" fill="none" /><path d="M214.4 23.4 Q211.4 27.6 208.4 32.3" stroke-width="0.75" opacity="0.8" fill="none" /><path d="M222.0 29.3 Q218.0 33.0 215.2 37.3" stroke-width="0.75" opacity="0.8" fill="none" /><path d="M228.9 35.9 Q225.4 39.2 221.2 42.9" stroke-width="0.75" opacity="0.8" fill="none" /><path d="M234.9 43.1 Q230.8 46.5 226.5 49.2" stroke-width="0.75" opacity="0.8" fill="none" /><path d="M239.9 51.0 Q235.0 54.2 230.9 55.9" stroke-width="0.75" opacity="0.8" fill="none" /><path d="M243.8 59.3 Q238.9 61.6 234.4 63.1" stroke-width="0.75" opacity="0.8" fill="none" /><path d="M246.7 68.0 Q241.5 69.3 237.0 70.5" stroke-width="0.75" opacity="0.8" fill="none" /><path d="M248.4 76.9 Q242.8 77.7 238.5 78.2" stroke-width="0.75" opacity="0.8" fill="none" /><path d="M249.0 86.0 Q243.4 86.6 239.0 86.0" stroke-width="0.75" opacity="0.8" fill="none" /><path d="M72.0 101.0 Q76.1 188.9 79.0 276.0" stroke-width="0.65" opacity="0.65" fill="none" /><path d="M75.0 101.0 Q79.1 188.8 82.0 276.0" stroke-width="0.65" opacity="0.65" fill="none" /><path d="M78.0 101.0 Q81.4 189.1 85.0 276.0" stroke-width="0.65" opacity="0.65" fill="none" /><path d="M81.0 101.0 Q85.3 188.4 88.0 276.0" stroke-width="0.65" opacity="0.65" fill="none" /><path d="M244.0 97.0 Q247.4 185.9 252.0 275.0" stroke-width="0.65" opacity="0.6" fill="none" /><path d="M247.0 97.0 Q251.1 185.6 255.0 275.0" stroke-width="0.65" opacity="0.6" fill="none" /><path d="M250.0 97.0 Q253.7 186.3 258.0 275.0" stroke-width="0.65" opacity="0.6" fill="none" /><path d="M253.0 97.0 Q257.3 186.1 261.0 275.0" stroke-width="0.65" opacity="0.6" fill="none" /><path d="M97 216 Q142 183 172 212 Q206 186 236 214 M97 225 Q140 210 175 228 T237 224 M125 269 Q157 233 195 219" stroke-width="0.8" opacity="0.75" fill="none" /><path d="M98.0 231.0 Q166.9 231.0 235.0 231.0" stroke-width="0.5" opacity="0.38" fill="none" /><path d="M98.0 234.0 Q166.0 233.2 235.0 234.0" stroke-width="0.5" opacity="0.38" fill="none" /><path d="M98.0 237.0 Q166.7 236.9 235.0 237.0" stroke-width="0.5" opacity="0.38" fill="none" /><path d="M98.0 240.0 Q167.0 239.9 235.0 240.0" stroke-width="0.5" opacity="0.38" fill="none" /><path d="M98.0 243.0 Q166.1 243.3 235.0 243.0" stroke-width="0.5" opacity="0.38" fill="none" /><path d="M98.0 246.0 Q166.7 245.9 235.0 246.0" stroke-width="0.5" opacity="0.38" fill="none" /><path d="M98.0 249.0 Q167.2 248.2 235.0 249.0" stroke-width="0.5" opacity="0.38" fill="none" /><path d="M98.0 252.0 Q166.5 252.8 235.0 252.0" stroke-width="0.5" opacity="0.38" fill="none" /><path d="M98.0 255.0 Q166.7 255.7 235.0 255.0" stroke-width="0.5" opacity="0.38" fill="none" /><path d="M98.0 258.0 Q166.4 257.9 235.0 258.0" stroke-width="0.5" opacity="0.38" fill="none" /><path d="M98.0 261.0 Q167.2 260.7 235.0 261.0" stroke-width="0.5" opacity="0.38" fill="none" /><path d="M98.0 264.0 Q166.4 263.6 235.0 264.0" stroke-width="0.5" opacity="0.38" fill="none" /><path d="M114 143 Q151 112 201 140 Q160 172 114 143 M115 143 Q160 129 201 140" stroke-width="1.2" opacity="1" fill="none" /><ellipse cx="157" cy="141" rx="13" ry="14" stroke-width="1" fill="none" opacity="1"/><ellipse cx="159" cy="142" rx="5" ry="7" stroke-width="0.7" fill="#173A77" opacity="1"/><path d="M97 103 L122 70 M99 114 L139 61 M207 252 l17 -22 M208 262 l25 -34" stroke-width="0.65" opacity="0.4" fill="none" /><path d="M143 15 Q147 -4 160 9 Q174 -7 181 12 M150 17 Q160 3 171 17" stroke-width="1" opacity="1" fill="none" /><g transform="translate(288 289) scale(0.57) rotate(0)"><ellipse cx="11" cy="7" rx="4.4" ry="6" stroke-width="1" fill="#F3EEE3" opacity="1"/><path d="M8 13 Q0 23 3 40 L11 43 18 38 Q20 20 14 14 M5 20 L-4 35 -1 38 8 28 M16 20 L25 31 28 24 M7 41 L4 63 0 65 M14 42 L19 61 24 63" stroke-width="1.3" opacity="1" fill="#F3EEE3" /><path d="M7.0 18.0 Q7.9 28.5 8.0 38.0" stroke-width="0.65" opacity="0.45" fill="none" /><path d="M10.0 18.0 Q11.0 28.7 11.0 38.0" stroke-width="0.65" opacity="0.45" fill="none" /><path d="M13.0 18.0 Q14.2 28.0 14.0 38.0" stroke-width="0.65" opacity="0.45" fill="none" /></g><g transform="translate(39 83) scale(0.45) rotate(0)"><path d="M0 4 Q-14 -14 -27 -6 Q-11 -4 0 4 Q15 -10 26 -2 Q12 -3 0 4 M-2 4 l4 5 3 -4" stroke-width="1.1" opacity="1" fill="none" /></g></svg>