<svg xmlns="http://www.w3.org/2000/svg" viewBox="0 0 360 370" fill="none" stroke="#173A77" stroke-linecap="round" stroke-linejoin="round"><path d="M87.0 319.4 q8.6 -0.9 17.2 -1" stroke-width="0.6" opacity="0.2541406728222877" fill="none" /><path d="M85.9 316.5 q11.9 -1.8 23.9 -1" stroke-width="0.6" opacity="0.4795544164067828" fill="none" /><path d="M230.4 328.5 q2.1 -1.6 4.2 -1" stroke-width="0.6" opacity="0.5690042439816538" fill="none" /><path d="M318.0 316.8 q8.3 -2.3 16.5 -1" stroke-width="0.6" opacity="0.3540259764640393" fill="none" /><path d="M200.2 319.9 q6.0 -2.0 11.9 -1" stroke-width="0.6" opacity="0.6376439829156486" fill="none" /><path d="M257.3 324.4 q9.0 -0.7 17.9 -1" stroke-width="0.6" opacity="0.4730015469504851" fill="none" /><path d="M75.2 329.0 q8.2 -2.5 16.4 -1" stroke-width="0.6" opacity="0.20847117033938764" fill="none" /><path d="M224.6 335.1 q2.1 -0.0 4.1 -1" stroke-width="0.6" opacity="0.4608457767042953" fill="none" /><path d="M290.3 308.9 q8.0 -1.5 15.9 -1" stroke-width="0.6" opacity="0.6030772309491106" fill="none" /><path d="M8.9 324.8 q10.5 -2.3 21.0 -1" stroke-width="0.6" opacity="0.40809169770002135" fill="none" /><path d="M289.6 325.8 q9.5 -0.6 19.0 -1" stroke-width="0.6" opacity="0.44903668986988166" fill="none" /><path d="M37.7 325.1 q3.3 -0.0 6.6 -1" stroke-width="0.6" opacity="0.5015086224205629" fill="none" /><path d="M309.5 335.3 q7.2 -0.0 14.4 -1" stroke-width="0.6" opacity="0.419248556913276" fill="none" /><path d="M152.2 310.0 q7.9 -1.1 15.8 -1" stroke-width="0.6" opacity="0.35965486578447736" fill="none" /><path d="M71.2 307.4 q3.2 -0.1 6.4 -1" stroke-width="0.6" opacity="0.3444487945357786" fill="none" /><path d="M261.5 316.0 q10.5 -2.3 21.0 -1" stroke-width="0.6" opacity="0.320148259452426" fill="none" /><path d="M205.9 328.4 q3.1 -2.3 6.2 -1" stroke-width="0.6" opacity="0.625373318621576" fill="none" /><path d="M15.3 319.3 q4.8 -0.7 9.6 -1" stroke-width="0.6" opacity="0.44610965701646343" fill="none" /><path d="M229.8 311.0 q4.3 -2.0 8.6 -1" stroke-width="0.6" opacity="0.4434438741699649" fill="none" /><path d="M297.9 327.7 q10.1 -0.4 20.2 -1" stroke-width="0.6" opacity="0.3671539841357097" fill="none" /><path d="M255.0 317.6 q3.7 -0.4 7.4 -1" stroke-width="0.6" opacity="0.21719173485621535" fill="none" /><path d="M94.6 308.9 q11.8 -1.4 23.5 -1" stroke-width="0.6" opacity="0.4003899393705532" fill="none" /><path d="M193.1 312.4 q3.9 -2.1 7.9 -1" stroke-width="0.6" opacity="0.5489774201642563" fill="none" /><path d="M270.7 318.1 q7.9 -2.0 15.7 -1" stroke-width="0.6" opacity="0.36848119096550785" fill="none" /><path d="M145.3 315.4 q5.2 -1.8 10.5 -1" stroke-width="0.6" opacity="0.4116829833007844" fill="none" /><path d="M179.2 333.2 q6.3 -1.4 12.6 -1" stroke-width="0.6" opacity="0.2647851294758665" fill="none" /><path d="M279.2 314.3 q7.8 -2.6 15.6 -1" stroke-width="0.6" opacity="0.23387490331945124" fill="none" /><path d="M45.1 308.6 q9.1 -0.7 18.3 -1" stroke-width="0.6" opacity="0.5303589266232522" fill="none" /><path d="M93.2 309.1 q6.3 -0.7 12.7 -1" stroke-width="0.6" opacity="0.49375793503167353" fill="none" /><path d="M238.2 336.5 q9.0 -1.0 17.9 -1" stroke-width="0.6" opacity="0.2583109905176201" fill="none" /><path d="M28.9 330.1 q4.5 -2.7 9.1 -1" stroke-width="0.6" opacity="0.2571954309060772" fill="none" /><path d="M106.1 309.9 q10.4 -0.7 20.9 -1" stroke-width="0.6" opacity="0.20741349468383022" fill="none" /><path d="M214.7 310.9 q1.7 -0.7 3.4 -1" stroke-width="0.6" opacity="0.5691645485837199" fill="none" /><path d="M23.0 339.8 q3.2 -1.4 6.4 -1" stroke-width="0.6" opacity="0.3409152952477447" fill="none" /><path d="M173.4 326.5 q2.1 -2.7 4.2 -1" stroke-width="0.6" opacity="0.25570473431699964" fill="none" /><path d="M272.1 315.2 q10.4 -0.4 20.8 -1" stroke-width="0.6" opacity="0.44606267577060177" fill="none" /><path d="M153.5 307.3 q11.0 -2.7 22.0 -1" stroke-width="0.6" opacity="0.2186445311808204" fill="none" /><path d="M168.3 316.9 q2.0 -2.0 3.9 -1" stroke-width="0.6" opacity="0.6116657351118604" fill="none" /><path d="M187.1 324.4 q8.3 -0.5 16.6 -1" stroke-width="0.6" opacity="0.5466911482310486" fill="none" /><path d="M93.4 336.0 q3.5 -2.9 6.9 -1" stroke-width="0.6" opacity="0.3296601148908024" fill="none" /><path d="M287.9 331.3 q6.3 -0.5 12.6 -1" stroke-width="0.6" opacity="0.5287272154905296" fill="none" /><path d="M323.5 338.9 q5.1 -2.7 10.3 -1" stroke-width="0.6" opacity="0.5390187482789118" fill="none" /><path d="M19.8 309.8 q4.3 -0.0 8.6 -1" stroke-width="0.6" opacity="0.47165513301738715" fill="none" /><path d="M326.3 313.6 q9.2 -1.3 18.3 -1" stroke-width="0.6" opacity="0.5667370682786013" fill="none" /><path d="M182.5 309.0 q12.0 -0.5 24.0 -1" stroke-width="0.6" opacity="0.5036463577523607" fill="none" /><path d="M228.7 317.6 q10.2 -1.8 20.5 -1" stroke-width="0.6" opacity="0.30753911144991186" fill="none" /><path d="M45.2 339.0 q11.2 -1.0 22.4 -1" stroke-width="0.6" opacity="0.3506981798015618" fill="none" /><path d="M10.3 311.2 q7.8 -1.1 15.6 -1" stroke-width="0.6" opacity="0.49588118765580846" fill="none" /><path d="M48.8 329.0 q11.6 -2.0 23.2 -1" stroke-width="0.6" opacity="0.23702966377678614" fill="none" /><path d="M255.0 329.1 q2.0 -1.4 3.9 -1" stroke-width="0.6" opacity="0.3679248586429866" fill="none" /><path d="M158.1 328.1 q4.5 -0.1 9.1 -1" stroke-width="0.6" opacity="0.3194186777835485" fill="none" /><path d="M154.7 337.8 q2.6 -2.7 5.2 -1" stroke-width="0.6" opacity="0.2536767816626204" fill="none" /><path d="M18.5 334.8 q10.5 -2.5 21.1 -1" stroke-width="0.6" opacity="0.37085600599694024" fill="none" /><path d="M5.7 331.9 q2.4 -0.7 4.8 -1" stroke-width="0.6" opacity="0.5715063412407908" fill="none" /><path d="M160.9 309.7 q10.9 -2.4 21.8 -1" stroke-width="0.6" opacity="0.31328063591473104" fill="none" /><path d="M342.4 316.1 q11.1 -1.4 22.1 -1" stroke-width="0.6" opacity="0.5924817578368813" fill="none" /><path d="M305.2 314.5 q2.2 -0.6 4.4 -1" stroke-width="0.6" opacity="0.6007539778083337" fill="none" /><path d="M172.4 322.1 q2.2 -2.9 4.5 -1" stroke-width="0.6" opacity="0.4679776058231074" fill="none" /><path d="M206.4 312.4 q5.7 -2.2 11.4 -1" stroke-width="0.6" opacity="0.5231605028456732" fill="none" /><path d="M84.4 323.0 q5.0 -2.9 10.1 -1" stroke-width="0.6" opacity="0.2302348615054159" fill="none" /><path d="M74.3 317.8 q9.8 -2.7 19.7 -1" stroke-width="0.6" opacity="0.371841636453203" fill="none" /><path d="M205.5 307.4 q8.3 -2.8 16.7 -1" stroke-width="0.6" opacity="0.27629298043897416" fill="none" /><path d="M215.8 314.8 q3.6 -1.2 7.1 -1" stroke-width="0.6" opacity="0.6372845566347649" fill="none" /><path d="M163.2 337.5 q5.9 -2.4 11.8 -1" stroke-width="0.6" opacity="0.2021047633794714" fill="none" /><path d="M223.1 330.2 q6.3 -1.4 12.5 -1" stroke-width="0.6" opacity="0.2554120815393416" fill="none" /><path d="M92.4 326.8 q7.1 -1.3 14.2 -1" stroke-width="0.6" opacity="0.2664018114525112" fill="none" /><path d="M41.8 329.0 q7.3 -1.4 14.6 -1" stroke-width="0.6" opacity="0.26891235426089394" fill="none" /><path d="M232.2 333.7 q8.8 -0.4 17.6 -1" stroke-width="0.6" opacity="0.5602560376299129" fill="none" /><path d="M65.6 310.5 q4.3 -1.4 8.5 -1" stroke-width="0.6" opacity="0.5780520794997066" fill="none" /><path d="M177.6 327.4 q2.6 -1.7 5.3 -1" stroke-width="0.6" opacity="0.2884034241202992" fill="none" /><path d="M222.9 322.3 q8.3 -0.5 16.7 -1" stroke-width="0.6" opacity="0.4183485567352093" fill="none" /><path d="M296.0 319.4 q3.4 -2.7 6.7 -1" stroke-width="0.6" opacity="0.4060691188425133" fill="none" /><path d="M248.0 317.7 q11.5 -0.3 23.0 -1" stroke-width="0.6" opacity="0.3494216974902773" fill="none" /><path d="M1.2 314.7 q11.1 -2.2 22.2 -1" stroke-width="0.6" opacity="0.22933524284367762" fill="none" /><path d="M108.5 311.9 q11.2 -0.2 22.3 -1" stroke-width="0.6" opacity="0.39809140167617807" fill="none" /><path d="M283.9 330.4 q4.3 -2.5 8.6 -1" stroke-width="0.6" opacity="0.4237049834355233" fill="none" /><path d="M199.6 332.8 q11.1 -2.5 22.3 -1" stroke-width="0.6" opacity="0.3757101889580855" fill="none" /><path d="M26.8 308.7 q11.2 -1.3 22.4 -1" stroke-width="0.6" opacity="0.5064424861821712" fill="none" /><path d="M296.5 324.3 q9.1 -1.7 18.2 -1" stroke-width="0.6" opacity="0.4474045966980694" fill="none" /><path d="M233.8 312.5 q6.5 -2.3 13.1 -1" stroke-width="0.6" opacity="0.3806097032926046" fill="none" /><path d="M98.5 339.8 q9.0 -1.8 17.9 -1" stroke-width="0.6" opacity="0.6465207684496559" fill="none" /><path d="M323.9 310.0 q9.2 -1.6 18.4 -1" stroke-width="0.6" opacity="0.366506419725096" fill="none" /><path d="M48.1 339.6 q3.7 -2.2 7.3 -1" stroke-width="0.6" opacity="0.3975804822235458" fill="none" /><path d="M6.9 309.9 q2.8 -1.3 5.7 -1" stroke-width="0.6" opacity="0.361015980147459" fill="none" /><path d="M342.9 324.0 q5.7 -1.4 11.5 -1" stroke-width="0.6" opacity="0.34016820342023907" fill="none" /><path d="M322.5 322.4 q2.7 -2.6 5.4 -1" stroke-width="0.6" opacity="0.4943222220055361" fill="none" /><path d="M220.4 307.4 q2.3 -1.0 4.5 -1" stroke-width="0.6" opacity="0.5603862879033359" fill="none" /><path d="M277.4 337.0 q4.8 -2.6 9.5 -1" stroke-width="0.6" opacity="0.6361904433911985" fill="none" /><path d="M143.7 337.0 q7.1 -0.8 14.2 -1" stroke-width="0.6" opacity="0.5635179740300857" fill="none" /><path d="M311.8 331.1 q9.2 -0.5 18.5 -1" stroke-width="0.6" opacity="0.4662138359390541" fill="none" /><path d="M46 165 L185 97 324 172 185 248 Z" stroke-width="1.6" opacity="1" fill="#F3EEE3" /><path d="M46 165 v13 l138 77 140 -71 v-12 M69 189 v112 l10 7 9 -7 4 -99 M276 209 l-3 93 11 8 8 -13 2 -99 M175 250 v67 l12 3 7 -8 -1 -62" stroke-width="1.2" opacity="1" fill="#F3EEE3" /><path d="M77 166 L183 116 296 171 184 226 Z" stroke-width="0.8" opacity="1" fill="none" /><path d="M93 166 Q150 172 182 133 M124 191 Q145 159 226 150 M149 206 Q183 183 263 174 M186 208 l18 -29 43 -20" stroke-width="0.8" opacity="0.7" fill="none" /><path d="M161 166 l22 -35 18 40 -23 30 Z M161 166 l40 5 M183 132 l-5 69" stroke-width="0.85" opacity="1" fill="none" /><ellipse cx="185" cy="165" rx="11" ry="6" stroke-width="0.7" fill="none" opacity="1"/><path d="M251 150 l10 -47 7 -1 2 56 M253 129 l13 2 M259 103 l6 -6" stroke-width="1.1" opacity="1" fill="#F3EEE3" /><path d="M58 155 q-12 -20 3 -22 l91 -38 q18 -3 10 12 l-87 36 q-9 14 -17 12" stroke-width="1" opacity="1" fill="#F3EEE3" /><path d="M62 134 q15 11 2 20 M78 139 l80 -34" stroke-width="0.7" opacity="1" fill="none" /><g transform="translate(322 212) scale(1.2) rotate(0)"><ellipse cx="11" cy="7" rx="4.4" ry="6" stroke-width="1" fill="#F3EEE3" opacity="1"/><path d="M8 13 Q0 23 3 40 L11 43 18 38 Q20 20 14 14 M5 20 L-4 35 -1 38 8 28 M16 20 L25 31 28 24 M7 41 L4 63 0 65 M14 42 L19 61 24 63" stroke-width="1.3" opacity="1" fill="#F3EEE3" /><path d="M7.0 18.0 Q8.0 28.3 8.0 38.0" stroke-width="0.65" opacity="0.45" fill="none" /><path d="M10.0 18.0 Q10.4 28.2 11.0 38.0" stroke-width="0.65" opacity="0.45" fill="none" /><path d="M13.0 18.0 Q13.5 27.9 14.0 38.0" stroke-width="0.65" opacity="0.45" fill="none" /></g></svg>